<svg xmlns="http://www.w3.org/2000/svg" xmlns:xlink="http://www.w3.org/1999/xlink" width="1123" zoomAndPan="magnify" viewBox="0 0 842.25 595.499986" height="794" preserveAspectRatio="xMidYMid meet" version="1.0"><defs><g/><clipPath id="9ea6143f26"><path d="M 0.335938 20.003906 L 139.015625 20.003906 L 139.015625 158.683594 L 0.335938 158.683594 Z M 0.335938 20.003906 " clip-rule="nonzero"/></clipPath><clipPath id="16bdec4941"><path d="M 152 0.148438 L 806.660156 0.148438 L 806.660156 177.113281 L 152 177.113281 Z M 152 0.148438 " clip-rule="nonzero"/></clipPath><clipPath id="42e866fd75"><rect x="0" width="655" y="0" height="178"/></clipPath><clipPath id="1c5129a6ad"><rect x="0" width="807" y="0" height="178"/></clipPath></defs><g transform="matrix(1, 0, 0, 1, 23, 208)"><g clip-path="url(#1c5129a6ad)"><g clip-path="url(#9ea6143f26)"><path fill="#4c84ff" d="M 4.894531 111.285156 C -1.003906 104.882812 -1.308594 92.164062 4.882812 85.414062 C 3.066406 83.324219 1.710938 80.808594 0.960938 77.734375 C -1.027344 69.601562 1.886719 60.765625 7.722656 57.398438 C 17.59375 51.703125 27.480469 46.058594 37.359375 40.394531 C 48.90625 33.769531 60.464844 27.167969 71.996094 20.476562 C 73.433594 19.644531 74.738281 20.09375 76.089844 20.472656 C 85.425781 23.082031 94.753906 25.738281 104.089844 28.355469 C 112.277344 30.652344 120.472656 32.914062 128.660156 35.203125 C 131.398438 35.964844 134.132812 36.75 136.867188 37.539062 C 138.261719 37.941406 139.140625 39.121094 139.269531 40.710938 C 139.429688 42.652344 138.816406 44.105469 137.457031 44.941406 C 129.03125 50.128906 120.601562 55.3125 112.171875 60.496094 C 101.101562 67.304688 90.03125 74.101562 78.96875 80.929688 C 78.023438 81.511719 77.125 81.625 76.113281 81.339844 C 69.34375 79.429688 62.566406 77.578125 55.796875 75.683594 C 46.339844 73.039062 36.890625 70.371094 27.441406 67.71875 C 22.808594 66.417969 18.175781 65.128906 13.542969 63.835938 C 10.300781 62.933594 6.691406 66.496094 6.125 70.90625 C 5.484375 75.871094 8.101562 80.402344 11.355469 81.191406 C 14.445312 81.941406 17.503906 82.886719 20.578125 83.746094 C 20.671875 83.773438 20.765625 83.785156 20.894531 83.808594 C 21.085938 81.007812 21.828125 78.527344 23.007812 76.257812 C 23.285156 75.722656 23.5625 75.578125 24.039062 75.714844 C 29.050781 77.136719 34.070312 78.527344 39.085938 79.933594 C 39.277344 79.988281 39.460938 80.089844 39.710938 80.195312 C 38.40625 82.699219 37.621094 85.4375 37.527344 88.523438 C 39.851562 89.175781 42.125 89.824219 44.402344 90.460938 C 49.511719 91.886719 54.625 93.300781 59.734375 94.734375 C 65.28125 96.289062 70.820312 97.867188 76.367188 99.394531 C 76.742188 99.496094 77.207031 99.359375 77.5625 99.144531 C 84.683594 94.792969 91.792969 90.410156 98.902344 86.035156 C 110.929688 78.636719 122.953125 71.234375 134.976562 63.832031 C 136.429688 62.9375 137.8125 63.265625 138.664062 64.710938 C 139.5 66.132812 139.546875 68.0625 138.691406 69.492188 C 138.382812 70.007812 137.925781 70.4375 137.472656 70.71875 C 127.328125 76.988281 117.175781 83.238281 107.023438 89.484375 C 97.566406 95.304688 88.105469 101.117188 78.644531 106.933594 C 77.960938 107.355469 77.285156 107.503906 76.507812 107.28125 C 67.96875 104.855469 59.425781 102.472656 50.882812 100.078125 C 46.660156 98.898438 42.4375 97.71875 38.214844 96.542969 C 38.023438 96.488281 37.828125 96.472656 37.582031 96.429688 C 37.582031 102.417969 37.582031 108.351562 37.582031 114.355469 C 40.746094 115.242188 43.910156 116.136719 47.074219 117.023438 C 52.90625 118.664062 58.742188 120.308594 64.578125 121.9375 C 68.535156 123.046875 72.5 124.144531 76.464844 125.210938 C 76.765625 125.292969 77.140625 125.21875 77.421875 125.046875 C 86.464844 119.507812 95.5 113.957031 104.535156 108.398438 C 114.550781 102.234375 124.5625 96.0625 134.582031 89.902344 C 135.308594 89.457031 136.019531 88.929688 136.898438 89.203125 C 138.171875 89.59375 139.140625 90.804688 139.273438 92.320312 C 139.4375 94.226562 138.828125 95.734375 137.550781 96.527344 C 133.707031 98.898438 129.863281 101.265625 126.015625 103.632812 C 114.121094 110.949219 102.226562 118.269531 90.328125 125.585938 C 86.527344 127.925781 82.699219 130.195312 78.933594 132.628906 C 77.617188 133.480469 76.394531 133.097656 75.132812 132.746094 C 67.117188 130.507812 59.101562 128.25 51.089844 125.996094 C 44.796875 124.226562 38.507812 122.441406 32.21875 120.675781 C 26 118.933594 19.796875 117.085938 13.554688 115.515625 C 9.976562 114.613281 6.777344 117.945312 6.15625 122.558594 C 5.476562 127.644531 7.8125 131.886719 11.773438 132.980469 C 17.679688 134.617188 23.582031 136.289062 29.484375 137.941406 C 35.726562 139.683594 41.96875 141.421875 48.207031 143.167969 C 55.984375 145.34375 63.761719 147.53125 71.539062 149.710938 C 73.167969 150.171875 74.796875 150.652344 76.433594 151.066406 C 76.742188 151.148438 77.125 151.066406 77.417969 150.886719 C 85.230469 146.105469 93.03125 141.304688 100.835938 136.5 C 112.152344 129.535156 123.472656 122.582031 134.777344 115.582031 C 136.53125 114.492188 137.941406 115.175781 138.625 116.292969 C 139.839844 118.277344 139.425781 121.109375 137.667969 122.246094 C 135.320312 123.765625 132.929688 125.175781 130.558594 126.636719 C 124.703125 130.242188 118.84375 133.851562 112.988281 137.460938 C 101.582031 144.480469 90.171875 151.480469 78.78125 158.542969 C 77.425781 159.382812 76.179688 158.84375 74.902344 158.488281 C 67.792969 156.523438 60.691406 154.523438 53.585938 152.527344 C 44.699219 150.027344 35.816406 147.511719 26.929688 145.015625 C 21.171875 143.394531 15.402344 141.835938 9.648438 140.167969 C 4.992188 138.816406 1.199219 133.191406 0.507812 126.894531 C -0.15625 120.835938 1.390625 115.3125 4.894531 111.285156 Z M 127.339844 42.699219 C 123.046875 41.488281 118.925781 40.320312 114.808594 39.167969 C 108.039062 37.273438 101.265625 35.390625 94.496094 33.492188 C 88.257812 31.742188 82.023438 29.960938 75.78125 28.234375 C 75.035156 28.027344 74.136719 27.703125 73.5 28.058594 C 64.730469 32.996094 55.996094 38.046875 47.253906 43.0625 C 40.3125 47.046875 33.367188 51.015625 26.425781 54.996094 C 24.710938 55.976562 23.007812 56.980469 21.1875 58.039062 C 21.484375 58.171875 21.65625 58.273438 21.839844 58.324219 C 24.503906 59.066406 27.167969 59.796875 29.832031 60.542969 C 37.273438 62.617188 44.714844 64.691406 52.15625 66.773438 C 60.21875 69.027344 68.28125 71.292969 76.347656 73.523438 C 76.71875 73.625 77.179688 73.550781 77.523438 73.34375 C 81.871094 70.703125 86.207031 68.023438 90.546875 65.351562 C 101.882812 58.378906 113.222656 51.40625 124.558594 44.433594 C 125.4375 43.894531 126.316406 43.339844 127.339844 42.699219 Z M 20.785156 109.65625 C 20.8125 109.417969 20.832031 109.324219 20.832031 109.226562 C 20.832031 103.609375 20.820312 97.996094 20.839844 92.378906 C 20.84375 91.753906 20.648438 91.589844 20.261719 91.488281 C 18.84375 91.113281 17.433594 90.664062 16.011719 90.328125 C 14.570312 89.992188 13.171875 89.355469 11.652344 89.644531 C 8.632812 90.21875 6.199219 93.601562 6.027344 97.882812 C 5.867188 101.84375 7.632812 105.71875 10.753906 106.789062 C 14.046875 107.917969 17.40625 108.707031 20.785156 109.65625 Z M 23.398438 110.382812 C 27.304688 111.476562 31.070312 112.535156 34.988281 113.632812 C 32.996094 109.984375 31.105469 106.523438 29.183594 103.007812 C 27.261719 105.460938 25.382812 107.851562 23.398438 110.382812 Z M 23.398438 110.382812 " fill-opacity="1" fill-rule="nonzero"/></g><path fill="#4c84ff" d="M 65.683594 40.523438 C 68.46875 38.917969 71.171875 37.335938 73.894531 35.820312 C 74.3125 35.585938 74.855469 35.523438 75.296875 35.644531 C 82.863281 37.734375 90.417969 39.867188 97.976562 41.988281 C 101.605469 43.007812 105.230469 44.023438 108.859375 45.039062 C 109.136719 45.117188 109.414062 45.195312 109.890625 45.332031 C 109.066406 45.839844 108.410156 46.238281 107.757812 46.640625 C 105.949219 47.753906 104.121094 48.828125 102.332031 50.003906 C 101.648438 50.453125 101.015625 50.550781 100.285156 50.34375 C 94.53125 48.699219 88.773438 47.074219 83.011719 45.464844 C 77.324219 43.875 71.632812 42.308594 65.945312 40.730469 C 65.878906 40.710938 65.824219 40.636719 65.683594 40.523438 Z M 65.683594 40.523438 " fill-opacity="1" fill-rule="nonzero"/><g clip-path="url(#16bdec4941)"><g transform="matrix(1, 0, 0, 1, 152, 0)"><g clip-path="url(#42e866fd75)"><g fill="#4c84ff" fill-opacity="1"><g transform="translate(0.851077, 145.855486)"><g><path d="M 22.296875 -111.890625 C 32.660156 -111.992188 41.945312 -112.191406 50.15625 -112.484375 C 52.113281 -112.484375 55 -112.53125 58.8125 -112.625 L 58.8125 -101.921875 L 22.140625 -101.921875 C 22.242188 -99.085938 22.441406 -93.46875 22.734375 -85.0625 C 22.929688 -73.8125 23.367188 -67.703125 24.046875 -66.734375 C 24.535156 -65.847656 28.789062 -65.40625 36.8125 -65.40625 C 44.925781 -65.40625 49.765625 -65.113281 51.328125 -64.53125 C 52.890625 -63.9375 53.671875 -62.175781 53.671875 -59.25 L 53.671875 -54.703125 C 50.253906 -54.796875 45.171875 -55.039062 38.421875 -55.4375 C 31.773438 -55.820312 26.738281 -56.066406 23.3125 -56.171875 C 23.414062 -51.085938 23.660156 -43.410156 24.046875 -33.140625 C 24.640625 -17.691406 25.03125 -9.921875 25.21875 -9.828125 L 25.515625 -9.828125 C 27.367188 -9.828125 34.113281 -10.410156 45.75 -11.578125 C 59.144531 -13.046875 66.429688 -13.78125 67.609375 -13.78125 L 69.078125 -13.78125 C 69.460938 -13.6875 69.753906 -13.585938 69.953125 -13.484375 C 70.242188 -13.484375 70.535156 -13.390625 70.828125 -13.203125 L 71.265625 -12.765625 C 71.367188 -12.660156 71.46875 -12.414062 71.5625 -12.03125 C 71.664062 -11.726562 71.71875 -11.53125 71.71875 -11.4375 C 71.71875 -11.34375 71.765625 -11.050781 71.859375 -10.5625 C 72.054688 -10.070312 72.15625 -9.726562 72.15625 -9.53125 C 72.445312 -6.988281 72.59375 -5.425781 72.59375 -4.84375 L 72.59375 -4.6875 C 72.5 -4.59375 62.378906 -3.421875 42.234375 -1.171875 C 22.191406 0.972656 11.632812 2.046875 10.5625 2.046875 C 9.675781 2.046875 9.140625 1.753906 8.953125 1.171875 C 8.648438 0.585938 8.5 -0.632812 8.5 -2.5 C 8.5 -4.738281 8.648438 -6.15625 8.953125 -6.75 C 9.335938 -7.238281 10.210938 -7.53125 11.578125 -7.625 C 12.171875 -7.71875 13.101562 -7.863281 14.375 -8.0625 C 14.375 -11.289062 14.226562 -17.695312 13.9375 -27.28125 C 13.832031 -31.1875 13.679688 -38.910156 13.484375 -50.453125 C 13.191406 -61.984375 13 -69.851562 12.90625 -74.0625 C 12.8125 -80.125 12.613281 -89.21875 12.3125 -101.34375 C 11.34375 -101.4375 9.828125 -101.582031 7.765625 -101.78125 C 5.710938 -101.875 4.195312 -101.921875 3.21875 -101.921875 L 3.21875 -111.609375 C 6.351562 -111.609375 12.710938 -111.703125 22.296875 -111.890625 Z M 22.296875 -111.890625 "/></g></g></g><g fill="#4c84ff" fill-opacity="1"><g transform="translate(76.661419, 145.855486)"><g><path d="M 53.671875 -71.125 C 50.441406 -73.082031 45.800781 -74.0625 39.75 -74.0625 C 36.613281 -74.0625 34.164062 -73.71875 32.40625 -73.03125 C 22.039062 -68.832031 15.785156 -61.5 13.640625 -51.03125 C 13.148438 -48.195312 12.90625 -45.800781 12.90625 -43.84375 C 12.90625 -36.507812 15.203125 -30.546875 19.796875 -25.953125 C 24.296875 -21.359375 30.3125 -19.015625 37.84375 -18.921875 C 40.863281 -18.921875 44.769531 -19.503906 49.5625 -20.671875 C 54.351562 -21.847656 57.582031 -22.972656 59.25 -24.046875 C 60.226562 -24.640625 61.054688 -31.09375 61.734375 -43.40625 C 62.035156 -47.507812 62.425781 -53.617188 62.90625 -61.734375 C 62.425781 -62.328125 61.550781 -63.503906 60.28125 -65.265625 C 58.613281 -67.410156 56.410156 -69.363281 53.671875 -71.125 Z M 62.90625 -77.4375 C 63.207031 -77.4375 63.550781 -80.5625 63.9375 -86.8125 C 64.332031 -92.976562 64.675781 -99.382812 64.96875 -106.03125 C 65.257812 -112.78125 65.40625 -116.203125 65.40625 -116.296875 C 65.800781 -118.640625 66.191406 -120.054688 66.578125 -120.546875 C 67.066406 -120.941406 68.289062 -121.140625 70.25 -121.140625 C 72.988281 -121.140625 74.601562 -120.796875 75.09375 -120.109375 C 75.1875 -120.015625 75.234375 -119.28125 75.234375 -117.90625 C 75.234375 -106.5625 74.0625 -81.238281 71.71875 -41.9375 C 71.613281 -39.394531 71.367188 -35.582031 70.984375 -30.5 C 71.367188 -30.695312 72.195312 -31.085938 73.46875 -31.671875 C 74.445312 -32.160156 75.082031 -32.40625 75.375 -32.40625 C 76.15625 -32.40625 77.476562 -30.695312 79.34375 -27.28125 C 79.832031 -26.300781 80.078125 -25.613281 80.078125 -25.21875 C 80.078125 -24.726562 79.78125 -24.289062 79.1875 -23.90625 C 78.695312 -23.507812 77.425781 -22.726562 75.375 -21.5625 C 72.832031 -20 71.367188 -18.875 70.984375 -18.1875 C 70.492188 -17.5 70.25 -15.882812 70.25 -13.34375 L 70.25 -8.21875 L 65.265625 -8.21875 C 62.128906 -8.21875 60.367188 -8.945312 59.984375 -10.40625 C 59.691406 -11.675781 59.101562 -12.3125 58.21875 -12.3125 C 57.53125 -12.3125 56.40625 -12.019531 54.84375 -11.4375 C 50.15625 -9.582031 44.925781 -8.65625 39.15625 -8.65625 C 32.113281 -8.65625 26.050781 -9.972656 20.96875 -12.609375 C 15.394531 -15.546875 11.046875 -19.898438 7.921875 -25.671875 C 4.785156 -31.335938 3.21875 -37.59375 3.21875 -44.4375 C 3.21875 -52.84375 5.519531 -60.566406 10.125 -67.609375 C 12.175781 -70.835938 14.421875 -73.425781 16.859375 -75.375 C 19.304688 -77.332031 22.632812 -79.289062 26.84375 -81.25 C 30.945312 -83.101562 35.785156 -84.03125 41.359375 -84.03125 C 48.984375 -84.03125 55.191406 -82.414062 59.984375 -79.1875 C 61.640625 -78.019531 62.613281 -77.4375 62.90625 -77.4375 Z M 62.90625 -77.4375 "/></g></g></g><g fill="#4c84ff" fill-opacity="1"><g transform="translate(159.950152, 145.855486)"><g><path d="M 4.6875 -90.1875 C 4.789062 -92.050781 4.988281 -95.71875 5.28125 -101.1875 C 5.96875 -101.09375 7.382812 -100.898438 9.53125 -100.609375 C 12.070312 -100.304688 13.632812 -99.960938 14.21875 -99.578125 C 14.320312 -99.484375 14.375 -98.554688 14.375 -96.796875 C 14.375 -92.390625 14.128906 -84.46875 13.640625 -73.03125 C 12.953125 -59.738281 12.609375 -48.738281 12.609375 -40.03125 C 12.609375 -30.550781 13.296875 -24.296875 14.671875 -21.265625 C 16.035156 -18.328125 18.578125 -16.859375 22.296875 -16.859375 C 27.765625 -16.859375 34.363281 -20.234375 42.09375 -26.984375 C 50.007812 -34.117188 56.460938 -42.820312 61.453125 -53.09375 C 66.429688 -63.351562 69.019531 -73.078125 69.21875 -82.265625 C 69.21875 -84.222656 69.265625 -87.109375 69.359375 -90.921875 L 79.046875 -90.921875 C 79.140625 -88.179688 79.382812 -82.851562 79.78125 -74.9375 C 80.46875 -61.15625 81.394531 -47.320312 82.5625 -33.4375 C 84.03125 -18.28125 84.765625 -9.773438 84.765625 -7.921875 C 84.765625 -7.722656 83.148438 -7.332031 79.921875 -6.75 C 78.265625 -6.550781 77.335938 -6.453125 77.140625 -6.453125 C 75.960938 -6.453125 75.179688 -6.941406 74.796875 -7.921875 C 74.796875 -8.015625 74.5 -11.335938 73.90625 -17.890625 C 73.414062 -24.441406 72.878906 -30.894531 72.296875 -37.25 C 71.609375 -43.507812 71.171875 -46.785156 70.984375 -47.078125 L 70.828125 -47.078125 C 70.335938 -47.078125 68.773438 -44.875 66.140625 -40.46875 C 63.203125 -35.488281 58.507812 -29.820312 52.0625 -23.46875 C 45.707031 -17.007812 40.332031 -12.65625 35.9375 -10.40625 C 31.039062 -7.769531 26.195312 -6.453125 21.40625 -6.453125 C 17.695312 -6.453125 14.816406 -7.234375 12.765625 -8.796875 C 8.066406 -12.410156 5.082031 -17.492188 3.8125 -24.046875 C 3.226562 -26.492188 2.9375 -32.164062 2.9375 -41.0625 C 2.9375 -56.707031 3.519531 -73.082031 4.6875 -90.1875 Z M 4.6875 -90.1875 "/></g></g></g><g fill="#4c84ff" fill-opacity="1"><g transform="translate(247.931206, 145.855486)"><g><path d="M 37.390625 -112.78125 C 40.234375 -113.851562 44.441406 -114.390625 50.015625 -114.390625 C 57.734375 -114.390625 63.988281 -113.507812 68.78125 -111.75 C 70.144531 -111.164062 72.195312 -110.332031 74.9375 -109.25 C 74.738281 -108.757812 74.347656 -107.640625 73.765625 -105.890625 C 73.078125 -103.640625 72.34375 -102.171875 71.5625 -101.484375 C 71.46875 -101.390625 71.222656 -101.34375 70.828125 -101.34375 C 69.265625 -101.34375 66.722656 -101.878906 63.203125 -102.953125 C 58.804688 -104.316406 54.894531 -105 51.46875 -105 C 40.71875 -105 31.578125 -100.648438 24.046875 -91.953125 C 16.617188 -83.347656 12.90625 -72.691406 12.90625 -59.984375 C 12.90625 -56.847656 13.097656 -53.914062 13.484375 -51.1875 C 16.515625 -29.769531 27.8125 -18.523438 47.375 -17.453125 C 47.664062 -17.453125 48.148438 -17.40625 48.828125 -17.3125 L 50.453125 -17.3125 C 54.554688 -17.3125 58.804688 -17.601562 63.203125 -18.1875 C 67.503906 -18.769531 70.242188 -19.453125 71.421875 -20.234375 C 71.910156 -20.523438 72.15625 -21.457031 72.15625 -23.03125 C 72.15625 -25.46875 71.710938 -29.523438 70.828125 -35.203125 C 69.554688 -44.585938 68.675781 -49.523438 68.1875 -50.015625 C 68 -50.109375 67.753906 -50.15625 67.453125 -50.15625 C 65.304688 -50.15625 61.691406 -49.765625 56.609375 -48.984375 C 52.691406 -48.296875 49.707031 -47.953125 47.65625 -47.953125 C 46 -47.953125 44.972656 -48.296875 44.578125 -48.984375 C 44.085938 -49.671875 43.84375 -51.132812 43.84375 -53.375 C 43.84375 -54.75 44.039062 -55.679688 44.4375 -56.171875 C 44.726562 -56.753906 45.363281 -57.144531 46.34375 -57.34375 C 48.6875 -57.925781 53.914062 -58.804688 62.03125 -59.984375 C 70.144531 -61.148438 74.984375 -61.734375 76.546875 -61.734375 L 76.84375 -61.734375 C 77.039062 -61.546875 78.210938 -54.066406 80.359375 -39.296875 C 82.410156 -24.535156 83.4375 -16.421875 83.4375 -14.953125 C 83.4375 -13.972656 80.015625 -12.507812 73.171875 -10.5625 C 63.785156 -8.019531 56.304688 -6.75 50.734375 -6.75 C 48.296875 -6.75 45.5625 -6.992188 42.53125 -7.484375 C 32.851562 -9.046875 24.785156 -12.804688 18.328125 -18.765625 C 11.878906 -24.734375 7.382812 -32.65625 4.84375 -42.53125 C 3.757812 -47.125 3.21875 -52.890625 3.21875 -59.828125 C 3.21875 -66.484375 3.707031 -71.664062 4.6875 -75.375 C 6.9375 -84.269531 10.945312 -91.945312 16.71875 -98.40625 C 22.382812 -104.851562 29.273438 -109.644531 37.390625 -112.78125 Z M 37.390625 -112.78125 "/></g></g></g><g fill="#4c84ff" fill-opacity="1"><g transform="translate(334.73918, 145.855486)"><g><path d="M 39.15625 -102.953125 C 41.007812 -103.335938 42.816406 -103.53125 44.578125 -103.53125 C 53.179688 -103.53125 61.101562 -99.71875 68.34375 -92.09375 C 69.613281 -90.726562 71.664062 -87.453125 74.5 -82.265625 C 77.4375 -76.992188 78.90625 -73.867188 78.90625 -72.890625 C 78.90625 -72.492188 77.679688 -71.757812 75.234375 -70.6875 C 72.785156 -69.613281 71.171875 -69.078125 70.390625 -69.078125 C 69.703125 -69.078125 68.578125 -71.128906 67.015625 -75.234375 C 65.546875 -78.753906 63.394531 -82.175781 60.5625 -85.5 C 57.726562 -88.820312 55.039062 -91.019531 52.5 -92.09375 C 50.25 -93.070312 47.753906 -93.5625 45.015625 -93.5625 C 40.234375 -93.5625 35.539062 -92 30.9375 -88.875 C 26.445312 -85.738281 22.832031 -81.582031 20.09375 -76.40625 C 18.238281 -72.5 16.914062 -68.097656 16.125 -63.203125 C 15.25 -58.316406 14.8125 -51.226562 14.8125 -41.9375 C 14.8125 -40.957031 14.859375 -39.441406 14.953125 -37.390625 L 14.953125 -32.703125 C 15.054688 -27.421875 15.207031 -19.453125 15.40625 -8.796875 C 14.71875 -8.796875 13.296875 -8.695312 11.140625 -8.5 C 10.359375 -8.5 8.84375 -8.351562 6.59375 -8.0625 C 6.5 -10.3125 6.253906 -14.710938 5.859375 -21.265625 C 4.097656 -55.191406 3.21875 -79.046875 3.21875 -92.828125 L 3.21875 -103.09375 L 12.765625 -103.09375 L 12.765625 -95.328125 C 12.765625 -90.140625 12.957031 -87.351562 13.34375 -86.96875 L 13.484375 -86.96875 C 14.171875 -86.96875 15.882812 -88.429688 18.625 -91.359375 C 21.5625 -94.296875 24.882812 -96.835938 28.59375 -98.984375 C 32.207031 -101.140625 35.726562 -102.460938 39.15625 -102.953125 Z M 39.15625 -102.953125 "/></g></g></g><g fill="#4c84ff" fill-opacity="1"><g transform="translate(416.854832, 145.855486)"><g><path d="M 50.890625 -64.375 C 47.953125 -66.425781 43.796875 -67.550781 38.421875 -67.75 L 36.078125 -67.75 C 31.867188 -67.75 28.882812 -67.257812 27.125 -66.28125 C 18.625 -61.394531 14.375 -53.722656 14.375 -43.265625 C 14.375 -37.003906 16.179688 -32.164062 19.796875 -28.75 C 23.316406 -25.226562 27.910156 -23.46875 33.578125 -23.46875 C 40.035156 -23.46875 46.785156 -25.710938 53.828125 -30.203125 C 54.992188 -30.992188 56.800781 -32.117188 59.25 -33.578125 C 59.445312 -35.242188 59.738281 -38.472656 60.125 -43.265625 C 60.414062 -46.296875 60.5625 -48.492188 60.5625 -49.859375 C 60.5625 -52.015625 59.679688 -54.410156 57.921875 -57.046875 C 55.773438 -60.273438 53.429688 -62.71875 50.890625 -64.375 Z M 22.875 -106.46875 C 27.082031 -108.425781 31.628906 -109.40625 36.515625 -109.40625 C 53.523438 -109.40625 64.28125 -98.0625 68.78125 -75.375 C 69.757812 -69.707031 70.25 -64.429688 70.25 -59.546875 C 70.25 -58.078125 70.148438 -54.65625 69.953125 -49.28125 C 69.660156 -41.65625 69.070312 -33.6875 68.1875 -25.375 C 67.3125 -17.0625 66.53125 -12.5625 65.84375 -11.875 C 65.84375 -11.78125 65.5 -11.734375 64.8125 -11.734375 C 63.644531 -11.734375 62.28125 -11.878906 60.71875 -12.171875 C 58.957031 -12.460938 57.832031 -12.753906 57.34375 -13.046875 C 56.757812 -13.335938 56.46875 -13.878906 56.46875 -14.671875 C 56.46875 -15.453125 56.515625 -16.085938 56.609375 -16.578125 C 56.804688 -18.722656 56.609375 -19.695312 56.015625 -19.5 C 50.347656 -17.0625 46.195312 -15.453125 43.5625 -14.671875 C 41.019531 -13.984375 37.890625 -13.640625 34.171875 -13.640625 C 25.171875 -13.640625 17.984375 -16.425781 12.609375 -22 C 7.140625 -27.46875 4.40625 -34.65625 4.40625 -43.5625 L 4.40625 -44.875 C 4.5 -45.363281 4.546875 -45.753906 4.546875 -46.046875 C 5.234375 -55.628906 8.554688 -63.351562 14.515625 -69.21875 C 20.578125 -74.988281 28.15625 -77.921875 37.25 -78.015625 C 41.15625 -78.015625 44.1875 -77.675781 46.34375 -77 C 48.488281 -76.3125 52.59375 -74.398438 58.65625 -71.265625 L 58.8125 -71.265625 C 59 -71.265625 59.09375 -71.5625 59.09375 -72.15625 C 59.09375 -74.40625 58.117188 -78.265625 56.171875 -83.734375 C 54.304688 -88.816406 51.664062 -92.78125 48.25 -95.625 C 44.820312 -98.457031 41.054688 -99.875 36.953125 -99.875 C 32.847656 -99.875 28.789062 -98.695312 24.78125 -96.34375 C 20.769531 -94 17.546875 -90.972656 15.109375 -87.265625 C 12.953125 -83.835938 11.773438 -81.925781 11.578125 -81.53125 C 11.578125 -81.4375 11.484375 -81.390625 11.296875 -81.390625 C 10.410156 -81.390625 8.84375 -82.023438 6.59375 -83.296875 C 4.34375 -84.566406 3.21875 -85.492188 3.21875 -86.078125 C 3.21875 -86.867188 4.441406 -89.019531 6.890625 -92.53125 C 9.335938 -96.050781 11.390625 -98.59375 13.046875 -100.15625 C 15.585938 -102.507812 18.863281 -104.613281 22.875 -106.46875 Z M 22.875 -106.46875 "/></g></g></g><g fill="#4c84ff" fill-opacity="1"><g transform="translate(490.319013, 145.855486)"><g><path d="M 53.671875 -71.125 C 50.441406 -73.082031 45.800781 -74.0625 39.75 -74.0625 C 36.613281 -74.0625 34.164062 -73.71875 32.40625 -73.03125 C 22.039062 -68.832031 15.785156 -61.5 13.640625 -51.03125 C 13.148438 -48.195312 12.90625 -45.800781 12.90625 -43.84375 C 12.90625 -36.507812 15.203125 -30.546875 19.796875 -25.953125 C 24.296875 -21.359375 30.3125 -19.015625 37.84375 -18.921875 C 40.863281 -18.921875 44.769531 -19.503906 49.5625 -20.671875 C 54.351562 -21.847656 57.582031 -22.972656 59.25 -24.046875 C 60.226562 -24.640625 61.054688 -31.09375 61.734375 -43.40625 C 62.035156 -47.507812 62.425781 -53.617188 62.90625 -61.734375 C 62.425781 -62.328125 61.550781 -63.503906 60.28125 -65.265625 C 58.613281 -67.410156 56.410156 -69.363281 53.671875 -71.125 Z M 62.90625 -77.4375 C 63.207031 -77.4375 63.550781 -80.5625 63.9375 -86.8125 C 64.332031 -92.976562 64.675781 -99.382812 64.96875 -106.03125 C 65.257812 -112.78125 65.40625 -116.203125 65.40625 -116.296875 C 65.800781 -118.640625 66.191406 -120.054688 66.578125 -120.546875 C 67.066406 -120.941406 68.289062 -121.140625 70.25 -121.140625 C 72.988281 -121.140625 74.601562 -120.796875 75.09375 -120.109375 C 75.1875 -120.015625 75.234375 -119.28125 75.234375 -117.90625 C 75.234375 -106.5625 74.0625 -81.238281 71.71875 -41.9375 C 71.613281 -39.394531 71.367188 -35.582031 70.984375 -30.5 C 71.367188 -30.695312 72.195312 -31.085938 73.46875 -31.671875 C 74.445312 -32.160156 75.082031 -32.40625 75.375 -32.40625 C 76.15625 -32.40625 77.476562 -30.695312 79.34375 -27.28125 C 79.832031 -26.300781 80.078125 -25.613281 80.078125 -25.21875 C 80.078125 -24.726562 79.78125 -24.289062 79.1875 -23.90625 C 78.695312 -23.507812 77.425781 -22.726562 75.375 -21.5625 C 72.832031 -20 71.367188 -18.875 70.984375 -18.1875 C 70.492188 -17.5 70.25 -15.882812 70.25 -13.34375 L 70.25 -8.21875 L 65.265625 -8.21875 C 62.128906 -8.21875 60.367188 -8.945312 59.984375 -10.40625 C 59.691406 -11.675781 59.101562 -12.3125 58.21875 -12.3125 C 57.53125 -12.3125 56.40625 -12.019531 54.84375 -11.4375 C 50.15625 -9.582031 44.925781 -8.65625 39.15625 -8.65625 C 32.113281 -8.65625 26.050781 -9.972656 20.96875 -12.609375 C 15.394531 -15.546875 11.046875 -19.898438 7.921875 -25.671875 C 4.785156 -31.335938 3.21875 -37.59375 3.21875 -44.4375 C 3.21875 -52.84375 5.519531 -60.566406 10.125 -67.609375 C 12.175781 -70.835938 14.421875 -73.425781 16.859375 -75.375 C 19.304688 -77.332031 22.632812 -79.289062 26.84375 -81.25 C 30.945312 -83.101562 35.785156 -84.03125 41.359375 -84.03125 C 48.984375 -84.03125 55.191406 -82.414062 59.984375 -79.1875 C 61.640625 -78.019531 62.613281 -77.4375 62.90625 -77.4375 Z M 62.90625 -77.4375 "/></g></g></g><g fill="#4c84ff" fill-opacity="1"><g transform="translate(573.607745, 145.855486)"><g><path d="M 44.578125 -86.234375 C 41.835938 -87.503906 38.957031 -88.140625 35.9375 -88.140625 C 30.363281 -88.140625 25.273438 -85.9375 20.671875 -81.53125 C 18.722656 -79.582031 16.96875 -76.648438 15.40625 -72.734375 C 13.832031 -68.921875 13.046875 -65.644531 13.046875 -62.90625 C 13.046875 -60.664062 13.679688 -59.546875 14.953125 -59.546875 C 16.617188 -59.546875 20.429688 -60.816406 26.390625 -63.359375 C 32.359375 -65.992188 36.859375 -68.335938 39.890625 -70.390625 C 42.722656 -72.347656 45.117188 -74.453125 47.078125 -76.703125 C 49.035156 -78.953125 50.015625 -80.757812 50.015625 -82.125 C 50.015625 -82.320312 49.914062 -82.613281 49.71875 -83 C 49.320312 -83.78125 47.609375 -84.859375 44.578125 -86.234375 Z M 24.78125 -95.90625 C 28.300781 -97.175781 32.019531 -97.8125 35.9375 -97.8125 C 40.332031 -97.8125 44.4375 -97.03125 48.25 -95.46875 C 52.15625 -93.90625 55.132812 -91.753906 57.1875 -89.015625 C 59.050781 -86.671875 59.984375 -84.226562 59.984375 -81.6875 C 59.984375 -79.238281 59.050781 -76.550781 57.1875 -73.625 C 54.84375 -69.507812 50.347656 -65.351562 43.703125 -61.15625 C 37.148438 -56.945312 29.523438 -53.378906 20.828125 -50.453125 C 17.691406 -49.367188 15.734375 -48.585938 14.953125 -48.109375 C 14.171875 -47.710938 13.78125 -47.023438 13.78125 -46.046875 L 13.78125 -44.875 C 13.976562 -43.113281 15.25 -39.890625 17.59375 -35.203125 C 19.84375 -30.304688 22.535156 -26.882812 25.671875 -24.9375 C 28.796875 -23.070312 32.945312 -22.140625 38.125 -22.140625 C 41.351562 -22.140625 43.847656 -22.335938 45.609375 -22.734375 C 47.367188 -23.222656 49.8125 -24.25 52.9375 -25.8125 C 58.125 -28.257812 62.328125 -30.898438 65.546875 -33.734375 C 66.722656 -34.804688 68.4375 -36.367188 70.6875 -38.421875 C 72.25 -36.859375 74.5 -34.5625 77.4375 -31.53125 C 76.164062 -30.351562 74.257812 -28.640625 71.71875 -26.390625 C 68.195312 -23.171875 63.941406 -20.289062 58.953125 -17.75 C 54.066406 -15.101562 49.570312 -13.390625 45.46875 -12.609375 C 42.820312 -12.023438 40.179688 -11.734375 37.546875 -11.734375 C 31.191406 -11.734375 25.519531 -13.347656 20.53125 -16.578125 C 15.445312 -19.796875 11.390625 -24.4375 8.359375 -30.5 C 4.742188 -37.738281 2.9375 -46.242188 2.9375 -56.015625 L 2.9375 -57.78125 C 2.9375 -65.695312 3.816406 -71.757812 5.578125 -75.96875 C 7.140625 -79.976562 9.828125 -83.984375 13.640625 -87.984375 C 17.546875 -92.097656 21.257812 -94.738281 24.78125 -95.90625 Z M 24.78125 -95.90625 "/></g></g></g></g></g></g></g></g></svg>