<svg xmlns="http://www.w3.org/2000/svg" xmlns:xlink="http://www.w3.org/1999/xlink" width="1123" zoomAndPan="magnify" viewBox="0 0 842.25 595.499986" height="794" preserveAspectRatio="xMidYMid meet" version="1.0"><defs><clipPath id="e94898f931"><path d="M 1.113281 0.882812 L 560.324219 0.882812 L 560.324219 560.097656 L 1.113281 560.097656 Z M 1.113281 0.882812 " clip-rule="nonzero"/></clipPath><clipPath id="16a952d8b1"><rect x="0" width="561" y="0" height="561"/></clipPath></defs><g transform="matrix(1, 0, 0, 1, 140, 17)"><g clip-path="url(#16a952d8b1)"><g clip-path="url(#e94898f931)"><path fill="#ffffff" d="M 19.449219 368.167969 C -4.292969 342.402344 -5.507812 291.234375 19.40625 264.066406 C 12.09375 255.660156 6.636719 245.535156 3.613281 233.164062 C -4.378906 200.4375 7.339844 164.890625 30.832031 151.339844 C 70.542969 128.429688 110.320312 105.71875 150.066406 82.917969 C 196.539062 56.257812 243.050781 29.703125 289.441406 2.785156 C 295.222656 -0.570312 300.476562 1.234375 305.914062 2.757812 C 343.476562 13.269531 381.015625 23.945312 418.574219 34.480469 C 451.519531 43.71875 484.488281 52.832031 517.441406 62.03125 C 528.457031 65.105469 539.460938 68.25 550.457031 71.425781 C 556.066406 73.042969 559.605469 77.792969 560.128906 84.191406 C 560.769531 92.007812 558.304688 97.851562 552.839844 101.21875 C 518.929688 122.09375 485.011719 142.949219 451.097656 163.804688 C 406.558594 191.195312 362.007812 218.546875 317.5 246.027344 C 313.703125 248.371094 310.074219 248.824219 306.007812 247.675781 C 278.769531 239.992188 251.5 232.542969 224.253906 224.921875 C 186.214844 214.277344 148.195312 203.542969 110.164062 192.867188 C 91.527344 187.636719 72.886719 182.441406 54.246094 177.25 C 41.203125 173.617188 26.675781 187.949219 24.390625 205.6875 C 21.820312 225.667969 32.347656 243.90625 45.441406 247.078125 C 57.871094 250.089844 70.191406 253.902344 82.554688 257.359375 C 82.925781 257.464844 83.308594 257.507812 83.832031 257.605469 C 84.597656 246.339844 87.582031 236.355469 92.324219 227.230469 C 93.441406 225.078125 94.554688 224.488281 96.472656 225.035156 C 116.644531 230.761719 136.839844 236.363281 157.023438 242.019531 C 157.792969 242.234375 158.53125 242.644531 159.542969 243.070312 C 154.285156 253.148438 151.132812 264.15625 150.757812 276.570312 C 160.101562 279.207031 169.253906 281.808594 178.414062 284.367188 C 198.980469 290.109375 219.550781 295.804688 240.113281 301.566406 C 262.417969 307.820312 284.710938 314.171875 307.035156 320.3125 C 308.535156 320.726562 310.410156 320.183594 311.84375 319.304688 C 340.488281 301.796875 369.09375 284.175781 397.703125 266.566406 C 446.089844 236.789062 494.476562 207.007812 542.863281 177.21875 C 548.699219 173.628906 554.265625 174.941406 557.6875 180.761719 C 561.058594 186.488281 561.253906 194.257812 557.808594 200 C 556.558594 202.082031 554.726562 203.804688 552.902344 204.933594 C 512.085938 230.167969 471.234375 255.308594 430.382812 280.445312 C 392.324219 303.863281 354.257812 327.257812 316.195312 350.660156 C 313.4375 352.355469 310.71875 352.949219 307.589844 352.054688 C 273.238281 342.289062 238.859375 332.703125 204.488281 323.078125 C 187.5 318.320312 170.507812 313.574219 153.515625 308.839844 C 152.75 308.628906 151.960938 308.558594 150.980469 308.390625 C 150.980469 332.476562 150.980469 356.363281 150.980469 380.507812 C 163.707031 384.09375 176.429688 387.675781 189.15625 391.253906 C 212.632812 397.847656 236.105469 404.464844 259.589844 411.027344 C 275.523438 415.484375 291.464844 419.898438 307.425781 424.203125 C 308.636719 424.53125 310.144531 424.230469 311.28125 423.53125 C 347.660156 401.253906 384.011719 378.90625 420.363281 356.542969 C 460.664062 331.742188 500.953125 306.910156 541.261719 282.132812 C 544.191406 280.332031 547.046875 278.210938 550.585938 279.304688 C 555.707031 280.886719 559.605469 285.75 560.136719 291.851562 C 560.808594 299.527344 558.355469 305.597656 553.207031 308.777344 C 537.75 318.324219 522.277344 327.847656 506.804688 337.367188 C 458.941406 366.816406 411.078125 396.261719 363.207031 425.707031 C 347.910156 435.117188 332.515625 444.257812 317.351562 454.050781 C 312.054688 457.46875 307.148438 455.929688 302.066406 454.511719 C 269.808594 445.507812 237.5625 436.429688 205.316406 427.359375 C 180.003906 420.238281 154.703125 413.054688 129.386719 405.953125 C 104.371094 398.933594 79.40625 391.503906 54.292969 385.179688 C 39.890625 381.550781 27.015625 394.960938 24.53125 413.515625 C 21.789062 433.980469 31.1875 451.050781 47.132812 455.464844 C 70.894531 462.039062 94.640625 468.769531 118.394531 475.414062 C 143.503906 482.4375 168.617188 489.417969 193.726562 496.449219 C 225.019531 505.210938 256.308594 514 287.601562 522.78125 C 294.164062 524.625 300.707031 526.566406 307.292969 528.238281 C 308.546875 528.558594 310.085938 528.234375 311.261719 527.511719 C 342.6875 508.273438 374.085938 488.953125 405.480469 469.625 C 451.011719 441.597656 496.566406 413.625 542.046875 385.445312 C 549.117188 381.066406 554.785156 383.820312 557.535156 388.308594 C 562.425781 396.296875 560.765625 407.691406 553.691406 412.269531 C 544.238281 418.386719 534.625 424.058594 525.085938 429.933594 C 501.515625 444.445312 477.949219 458.972656 454.378906 473.480469 C 408.492188 501.730469 362.574219 529.902344 316.742188 558.316406 C 311.292969 561.695312 306.28125 559.515625 301.140625 558.09375 C 272.539062 550.179688 243.953125 542.144531 215.367188 534.105469 C 179.613281 524.050781 143.867188 513.933594 108.109375 503.878906 C 84.9375 497.363281 61.722656 491.085938 38.578125 484.371094 C 19.84375 478.9375 4.574219 456.304688 1.792969 430.976562 C -0.882812 406.585938 5.347656 384.375 19.449219 368.167969 Z M 512.128906 92.195312 C 494.851562 87.324219 478.28125 82.628906 461.699219 77.984375 C 434.460938 70.355469 407.214844 62.785156 379.976562 55.144531 C 354.875 48.101562 329.792969 40.9375 304.675781 33.988281 C 301.671875 33.160156 298.050781 31.851562 295.5 33.289062 C 260.214844 53.15625 225.070312 73.480469 189.878906 93.664062 C 161.953125 109.683594 134.011719 125.65625 106.078125 141.671875 C 99.1875 145.625 92.324219 149.664062 85.007812 153.921875 C 86.199219 154.449219 86.898438 154.859375 87.625 155.0625 C 98.34375 158.050781 109.074219 160.996094 119.792969 163.984375 C 149.730469 172.335938 179.671875 180.6875 209.613281 189.0625 C 242.054688 198.132812 274.496094 207.25 306.957031 216.222656 C 308.445312 216.632812 310.292969 216.339844 311.679688 215.496094 C 329.179688 204.875 346.625 194.085938 364.085938 183.34375 C 409.703125 155.289062 455.320312 127.238281 500.9375 99.175781 C 504.480469 97 508.007812 94.769531 512.128906 92.195312 Z M 83.382812 361.609375 C 83.492188 360.652344 83.578125 360.269531 83.578125 359.886719 C 83.578125 337.285156 83.535156 314.683594 83.609375 292.085938 C 83.621094 289.578125 82.839844 288.917969 81.28125 288.507812 C 75.574219 287 69.90625 285.195312 64.179688 283.847656 C 58.382812 282.480469 52.753906 279.917969 46.632812 281.085938 C 34.488281 283.398438 24.695312 297.003906 24.003906 314.234375 C 23.367188 330.179688 30.457031 345.769531 43.019531 350.070312 C 56.273438 354.609375 69.785156 357.78125 83.382812 361.609375 Z M 93.898438 364.53125 C 109.617188 368.9375 124.773438 373.1875 140.535156 377.605469 C 132.515625 362.929688 124.90625 349 117.175781 334.863281 C 109.441406 344.722656 101.890625 354.34375 93.898438 364.53125 Z M 93.898438 364.53125 " fill-opacity="1" fill-rule="nonzero"/></g><path fill="#ffffff" d="M 264.046875 83.449219 C 275.25 76.988281 286.125 70.609375 297.085938 64.515625 C 298.765625 63.582031 300.945312 63.320312 302.730469 63.816406 C 333.164062 72.222656 363.570312 80.800781 393.984375 89.335938 C 408.578125 93.433594 423.167969 97.523438 437.761719 101.613281 C 438.878906 101.929688 439.996094 102.242188 441.921875 102.78125 C 438.59375 104.824219 435.964844 106.4375 433.339844 108.050781 C 426.050781 112.535156 418.703125 116.855469 411.503906 121.59375 C 408.761719 123.398438 406.210938 123.789062 403.273438 122.949219 C 380.113281 116.335938 356.941406 109.804688 333.761719 103.328125 C 310.878906 96.929688 287.980469 90.628906 265.09375 84.269531 C 264.828125 84.195312 264.601562 83.894531 264.046875 83.449219 Z M 264.046875 83.449219 " fill-opacity="1" fill-rule="nonzero"/></g></g></svg>